<svg xmlns="http://www.w3.org/2000/svg" viewBox="0 0 512 512" width="100%" height="100%">
  <defs>
    <radialGradient id="logo-radial-grad" cx="50%" cy="50%" r="50%" fx="30%" fy="30%">
      <stop offset="0%" stopColor="#ffffff" />
      <stop offset="100%" stopColor="#f8faff" />
    </radialGradient>

    <linearGradient id="brand-grad" x1="0%" y1="0%" x2="100%" y2="100%">
      <stop offset="0%" stopColor="#3da2ff" />
      <stop offset="40%" stopColor="#1a7eff" />
      <stop offset="100%" stopColor="#0052d9" />
    </linearGradient>

    <linearGradient id="shadow-grad" x1="0%" y1="0%" x2="100%" y2="100%">
      <stop offset="0%" stopColor="#0a4dbd" />
      <stop offset="100%" stopColor="#05338a" />
    </linearGradient>

    <filter id="logo-ds-filter" x="-10%" y="-10%" width="130%" height="130%">
      <feDropShadow dx="3" dy="10" stdDeviation="8" floodColor="#0a3fa0" floodOpacity="0.18" />
    </filter>
  </defs>

  <circle cx="256" cy="256" r="238" fill="url(#logo-radial-grad)" stroke="#1066e2" strokeWidth="15" />

  <g transform="translate(6, 12)">
    <path d="M 115 190 C 102 190, 96 178, 102 165 L 132 105 C 137 95, 148 90, 162 90 L 380 90 C 395 90, 408 100, 400 118 L 372 178 C 367 190, 354 195, 340 195 L 270 195 L 190 380 C 182 398, 166 408, 142 408 C 118 408, 108 395, 115 378 L 175 240 L 115 240 C 102 240, 96 230, 102 218 L 115 190 Z" fill="url(#shadow-grad)" />
    <path d="M 260 230 L 390 230 Q 420 230, 420 260 L 420 350 Q 420 380, 390 380 L 300 380 L 245 415 L 260 375 Q 250 370, 250 350 L 250 260 Q 250 230, 260 230 Z" fill="url(#shadow-grad)" />
  </g>

  <g filter="url(#logo-ds-filter)">
    <path d="M 115 190 C 102 190, 96 178, 102 165 L 132 105 C 137 95, 148 90, 162 90 L 380 90 C 395 90, 408 100, 400 118 L 372 178 C 367 190, 354 195, 340 195 L 270 195 L 190 380 C 182 398, 166 408, 142 408 C 118 408, 108 395, 115 378 L 175 240 L 115 240 C 102 240, 96 230, 102 218 L 115 190 Z" fill="url(#brand-grad)" />
    <path d="M 260 230 L 390 230 Q 420 230, 420 260 L 420 350 Q 420 380, 390 380 L 300 380 L 245 415 L 260 375 Q 250 370, 250 350 L 250 260 Q 250 230, 260 230 Z" fill="url(#brand-grad)" />
    <circle cx="295" cy="305" r="14" fill="#ffffff" />
    <circle cx="335" cy="305" r="14" fill="#ffffff" />
    <circle cx="375" cy="305" r="14" fill="#ffffff" />
  </g>
</svg>
